<svg width="78" height="76" xmlns="http://www.w3.org/2000/svg" xmlns:xlink="http://www.w3.org/1999/xlink" xmlns:svgjs="http://svgjs.com/svgjs" viewBox="0 0.014 78 75.973"><svg xmlns="http://www.w3.org/2000/svg" width="78" height="76" viewBox="1 1 77.001 75"><path paint-order="stroke fill markers" fill-rule="evenodd" d="M73.264 44.23a16.054 16.054 0 0 0-10.173-4.663V2.242c0-.686-.556-1.242-1.241-1.242H2.242C1.556 1 1 1.556 1 2.242v52.161c0 .686.556 1.242 1.242 1.242h28.562v17.871H9.693a1.242 1.242 0 0 0 0 2.484h44.706a1.242 1.242 0 0 0 0-2.484H33.288v-17.87h12.425a16.145 16.145 0 1 0 27.551-11.417zM3.484 20.87h57.124v14.904H3.484V20.871zm0-17.386h57.124v14.903H3.484V3.484zm0 49.677V38.258h57.124v1.31A16.048 16.048 0 0 0 45.922 53.16H3.484zm68.024 12.144c-5.334 5.335-13.983 5.335-19.318 0-5.335-5.335-5.335-13.985 0-19.32 5.335-5.335 13.984-5.335 19.318 0 5.326 5.339 5.326 13.981 0 19.32zM34.53 7.21a3.726 3.726 0 1 0 0 7.451 3.726 3.726 0 0 0 0-7.451zm0 4.967a1.242 1.242 0 1 1 0-2.484 1.242 1.242 0 0 1 0 2.484zm9.935-4.967a3.726 3.726 0 1 0 0 7.451 3.726 3.726 0 0 0 0-7.451zm0 4.967a1.242 1.242 0 1 1 0-2.484 1.242 1.242 0 0 1 0 2.484zm9.935-4.967a3.726 3.726 0 1 0 0 7.451 3.726 3.726 0 0 0 0-7.451zm0 4.967a1.242 1.242 0 1 1 0-2.484 1.242 1.242 0 0 1 0 2.484zm-19.87 12.42a3.726 3.726 0 1 0 0 7.451 3.726 3.726 0 0 0 0-7.451zm0 4.967a1.242 1.242 0 1 1 0-2.483 1.242 1.242 0 0 1 0 2.483zm9.935-4.967a3.726 3.726 0 1 0 0 7.451 3.726 3.726 0 0 0 0-7.451zm0 4.967a1.242 1.242 0 1 1 0-2.483 1.242 1.242 0 0 1 0 2.483zm9.935-4.967a3.726 3.726 0 1 0 0 7.451 3.726 3.726 0 0 0 0-7.451zm0 4.967a1.242 1.242 0 1 1 0-2.483 1.242 1.242 0 0 1 0 2.483zM14.66 5.968H7.21c-.687 0-1.243.556-1.243 1.242v7.451c0 .686.556 1.242 1.242 1.242h7.451c.686 0 1.242-.556 1.242-1.242V7.21c0-.686-.556-1.242-1.242-1.242zm-1.242 7.451H8.451V8.452h4.967v4.967zm1.242 9.936H7.21c-.687 0-1.243.556-1.243 1.242v7.451c0 .686.556 1.242 1.242 1.242h7.451c.686 0 1.242-.556 1.242-1.242v-7.451c0-.686-.556-1.242-1.242-1.242zm-1.242 7.451H8.451V25.84h4.967v4.967zM34.53 41.984a3.726 3.726 0 1 0 .001 7.452 3.726 3.726 0 0 0 0-7.452zm0 4.967a1.242 1.242 0 1 1 0-2.483 1.242 1.242 0 0 1 0 2.483zm9.935-4.967a3.726 3.726 0 1 0 0 7.452 3.726 3.726 0 0 0 0-7.452zm0 4.967a1.242 1.242 0 1 1 0-2.483 1.242 1.242 0 0 1 0 2.483zm-29.804-6.21H7.21c-.687 0-1.243.557-1.243 1.243v7.451c0 .686.556 1.242 1.242 1.242h7.451c.686 0 1.242-.556 1.242-1.242v-7.451c0-.686-.556-1.242-1.242-1.242zm-1.242 7.452H8.451v-4.967h4.967v4.967zM61.85 73.516h-3.726a1.242 1.242 0 0 0 0 2.484h3.726a1.242 1.242 0 0 0 0-2.484zm-55.883 0H2.242a1.242 1.242 0 0 0 0 2.484h3.725a1.242 1.242 0 0 0 0-2.484zm63.255-21.742h-3.726V48.05c0-.686-.556-1.242-1.242-1.242h-4.968c-.686 0-1.242.556-1.242 1.242v3.725h-3.726c-.686 0-1.242.556-1.242 1.242v4.968c0 .686.556 1.242 1.242 1.242h3.726v3.726c0 .686.556 1.242 1.242 1.242h4.968c.686 0 1.242-.556 1.242-1.242v-3.726h3.726c.686 0 1.242-.556 1.242-1.242v-4.968c0-.686-.556-1.242-1.242-1.242zm-1.242 4.968h-4.968v4.968h-2.484v-4.968H55.56v-2.484h4.968v-4.967h2.484v4.967h4.968v2.484z"/></svg></svg>