<svg width="36" height="38" xmlns="http://www.w3.org/2000/svg" xmlns:xlink="http://www.w3.org/1999/xlink" xmlns:svgjs="http://svgjs.com/svgjs" viewBox="0.086 0 35.828 38"><svg xmlns="http://www.w3.org/2000/svg" width="36" height="38" viewBox="2 2 32.999 35"><path paint-order="stroke fill markers" fill-rule="evenodd" d="M19.339 18.935c-.427.001-.844.126-1.202.36l-7.373-7.441a.556.556 0 0 0-.79.014.568.568 0 0 0 0 .784l7.407 7.475c-.18.326-.276.693-.28 1.066a2.248 2.248 0 0 0 2.238 2.259 2.248 2.248 0 0 0 2.237-2.259 2.248 2.248 0 0 0-2.237-2.258zm0 3.387a1.124 1.124 0 0 1-1.119-1.129c0-.623.501-1.129 1.119-1.129s1.118.506 1.118 1.13c0 .623-.5 1.128-1.118 1.128zm15.656-1.536a15.763 15.763 0 0 0-3.927-10.062l2.461-2.378a.568.568 0 0 0 .052-.796.556.556 0 0 0-.825-.018l-2.461 2.376c-.056-.056-.112-.118-.174-.175a15.507 15.507 0 0 0-10.226-4.332c0-.005.003-.009.003-.014V3.13h1.678c.309 0 .56-.253.56-.565a.562.562 0 0 0-.56-.564h-4.474a.562.562 0 0 0-.56.564c0 .312.25.565.56.565h1.677V5.4c-6.924.26-12.859 5.073-14.6 11.842h-1.62a.562.562 0 0 0-.56.564c0 .312.251.565.56.565h1.37c-.133.746-.213 1.5-.238 2.258h-.572a.562.562 0 0 0-.56.564c0 .312.25.565.56.565h.572c.026.757.105 1.512.237 2.258h-.81a.562.562 0 0 0-.559.565c0 .311.25.564.56.564h1.055C5.96 32.12 12.191 36.994 19.328 37c.138 0 .277-.002.415-.006 8.642-.235 15.464-7.485 15.252-16.208zm-15.28 15.08c-6.662.17-12.588-4.246-14.388-10.72H9.83c.31 0 .56-.254.56-.565a.562.562 0 0 0-.56-.565H5.068c-.142-.745-.229-1.5-.257-2.258h7.816c.309 0 .56-.253.56-.565a.562.562 0 0 0-.56-.564H4.811c.028-.758.115-1.513.26-2.258h3.081c.31 0 .56-.253.56-.565a.562.562 0 0 0-.56-.564H5.333c1.726-6.202 7.25-10.547 13.63-10.72.13-.006.257-.006.386-.006 8.031.01 14.534 6.588 14.525 14.695-.01 7.949-6.287 14.446-14.16 14.655z"/></svg></svg>