<svg width="77" height="77" xmlns="http://www.w3.org/2000/svg" xmlns:xlink="http://www.w3.org/1999/xlink" xmlns:svgjs="http://svgjs.com/svgjs"><svg xmlns="http://www.w3.org/2000/svg" width="77" height="77" viewBox="1 1 76 76"><path paint-order="stroke fill markers" fill-rule="evenodd" d="M35.323 65.968a3.677 3.677 0 1 0 7.354 0 3.677 3.677 0 0 0-7.354 0zm4.903 0a1.226 1.226 0 1 1-2.452 0 1.226 1.226 0 0 1 2.452 0zm-31.871 0a3.677 3.677 0 1 0 7.355 0 3.677 3.677 0 0 0-7.355 0zm4.903 0a1.226 1.226 0 1 1-2.452 0 1.226 1.226 0 0 1 2.452 0zm49.032 0a3.677 3.677 0 1 0 7.355 0 3.677 3.677 0 0 0-7.355 0zm4.903 0a1.226 1.226 0 1 1-2.451 0 1.226 1.226 0 0 1 2.451 0zM75.774 1H2.226C1.549 1 1 1.549 1 2.226v29.419c0 .677.549 1.226 1.226 1.226h35.548v8.58h-1.226c-.677 0-1.225.55-1.225 1.226v1.226H15.71v-1.226c0-.677-.55-1.226-1.226-1.226H9.58c-.677 0-1.226.55-1.226 1.226v4.903c0 .678.549 1.226 1.226 1.226h1.225v6.13H5.903c-.677 0-1.226.548-1.226 1.225v19.613c0 .677.55 1.226 1.226 1.226h12.258c.677 0 1.226-.549 1.226-1.226V56.161c0-.677-.549-1.226-1.226-1.226h-4.903v-6.129h1.226c.677 0 1.226-.548 1.226-1.226v-1.225h19.613v1.225c0 .678.548 1.226 1.225 1.226h1.226v6.13h-4.903c-.677 0-1.226.548-1.226 1.225v19.613c0 .677.549 1.226 1.226 1.226h12.258c.677 0 1.226-.549 1.226-1.226V56.161c0-.677-.55-1.226-1.226-1.226h-4.903v-6.129h1.226c.677 0 1.225-.548 1.225-1.226v-1.225H62.29v1.225c0 .678.55 1.226 1.226 1.226h1.226v6.13h-4.903c-.677 0-1.226.548-1.226 1.225v19.613c0 .677.549 1.226 1.226 1.226h12.258c.677 0 1.226-.549 1.226-1.226V56.161c0-.677-.55-1.226-1.226-1.226h-4.904v-6.129h1.226c.677 0 1.226-.548 1.226-1.226v-4.903c0-.677-.549-1.226-1.226-1.226h-4.903c-.677 0-1.226.55-1.226 1.226v1.226H42.677v-1.226c0-.677-.548-1.226-1.225-1.226h-1.226v-8.58h35.548c.677 0 1.226-.549 1.226-1.226V2.225C77 1.55 76.45 1 75.774 1zM16.935 74.548H7.13V57.387h9.806v17.161zm-3.677-28.193h-2.452v-2.452h2.452v2.452zm30.645 28.193h-9.806V57.387h9.806v17.161zm26.968 0h-9.807V57.387h9.807v17.161zm-6.13-30.645h2.452v2.452h-2.451v-2.452zm-24.515 2.452h-2.452v-2.452h2.452v2.452zM3.452 3.45h71.096V15.71H3.452V3.451zM74.548 30.42H3.452V18.161h71.096V30.42zM9.581 5.903a3.677 3.677 0 1 0 0 7.355 3.677 3.677 0 0 0 0-7.355zm0 4.903a1.226 1.226 0 1 1 0-2.451 1.226 1.226 0 0 1 0 2.451zm8.58-4.903a3.677 3.677 0 1 0 0 7.355 3.677 3.677 0 0 0 0-7.355zm0 4.903a1.226 1.226 0 1 1 0-2.451 1.226 1.226 0 0 1 0 2.451zm8.58-4.903a3.677 3.677 0 1 0 .001 7.355 3.677 3.677 0 0 0 0-7.355zm0 4.903a1.226 1.226 0 1 1 0-2.451 1.226 1.226 0 0 1 0 2.451zm29.42-4.903H42.677a1.226 1.226 0 0 0 0 2.452h13.484a1.226 1.226 0 1 0 0-2.452zm4.903 0H59.84a1.226 1.226 0 0 0 0 2.452h1.225a1.226 1.226 0 1 0 0-2.452zm-9.806 4.903h-8.58a1.226 1.226 0 0 0 0 2.452h8.58a1.226 1.226 0 1 0 0-2.452zm19.613-4.903h-4.903c-.677 0-1.226.549-1.226 1.226v4.903c0 .677.549 1.226 1.226 1.226h4.903c.677 0 1.226-.549 1.226-1.226V7.13c0-.677-.55-1.226-1.226-1.226zm-1.226 4.903h-2.452V8.355h2.452v2.451zM9.581 27.968a3.677 3.677 0 1 0 0-7.355 3.677 3.677 0 0 0 0 7.355zm0-4.904a1.226 1.226 0 1 1 0 2.452 1.226 1.226 0 0 1 0-2.452zm8.58 4.904a3.677 3.677 0 1 0 0-7.355 3.677 3.677 0 0 0 0 7.355zm0-4.904a1.226 1.226 0 1 1 0 2.452 1.226 1.226 0 0 1 0-2.452zm8.58 4.904a3.677 3.677 0 1 0 .001-7.355 3.677 3.677 0 0 0 0 7.355zm0-4.904a1.226 1.226 0 1 1 0 2.452 1.226 1.226 0 0 1 0-2.452zm15.936 0h13.484a1.226 1.226 0 1 0 0-2.451H42.677a1.226 1.226 0 0 0 0 2.451zm17.162 0h1.225a1.226 1.226 0 1 0 0-2.451H59.84a1.226 1.226 0 0 0 0 2.451zm-17.162 4.904h8.581a1.226 1.226 0 1 0 0-2.452h-8.58a1.226 1.226 0 0 0 0 2.452zm23.29 0h4.904c.677 0 1.226-.55 1.226-1.226v-4.903c0-.677-.55-1.226-1.226-1.226h-4.903c-.677 0-1.226.549-1.226 1.226v4.903c0 .677.549 1.226 1.226 1.226zm1.226-4.904h2.452v2.452h-2.452v-2.452z"/></svg></svg>