<svg width="93" height="58" xmlns="http://www.w3.org/2000/svg" xmlns:xlink="http://www.w3.org/1999/xlink" xmlns:svgjs="http://svgjs.com/svgjs" viewBox="0 0.581 93 56.837"><svg xmlns="http://www.w3.org/2000/svg" width="93" height="58" viewBox="2 1.995 90 55.004"><path paint-order="stroke fill markers" fill-rule="evenodd" d="M70.226 57H20.87c-.186 0-.37-.036-.542-.105C10.016 55.986 2 48.026 2 38.618c0-9.907 8.71-18.01 19.568-18.368C24.288 9.604 34.78 2 47 2c9.595-.164 18.534 4.842 23.385 13.098C82.573 15.847 92 24.888 92 36.012c0 10.883-9.31 19.989-21.275 20.892-.159.063-.328.096-.5.095zm-48.92-2.896h48.499c.108-.034.22-.055.334-.062 10.631-.63 18.958-8.55 18.958-18.03 0-9.805-8.631-17.738-19.652-18.06a1.453 1.453 0 0 1-1.254-.797C64.447 9.707 56.129 4.894 47 4.894c-11.282 0-20.892 7.187-22.85 17.088a1.476 1.476 0 0 1-1.452 1.168l-.244-.013h-.015c-9.73-.006-17.536 6.942-17.536 15.481 0 8.033 7.058 14.808 16.066 15.424.115.007.228.028.337.062z"/></svg></svg>