<svg width="78" height="59" xmlns="http://www.w3.org/2000/svg" xmlns:xlink="http://www.w3.org/1999/xlink" xmlns:svgjs="http://svgjs.com/svgjs" viewBox="0 0.123 78 58.755"><svg xmlns="http://www.w3.org/2000/svg" width="78" height="59" viewBox="1 1.998 77 58.002"><path paint-order="stroke fill markers" fill-rule="evenodd" d="M67.594 7.915a13.267 13.267 0 0 0-11.328-5.914c-5.837 0-10.878 3.406-12.388 8.232-5.216.347-9.346 4.174-9.346 8.828 0 4.52 3.962 8.338 9.074 8.8.118.035.241.053.365.054h23.224c.116 0 .23-.017.342-.05C73.426 27.408 78 23.071 78 17.888c0-5.232-4.517-9.499-10.406-9.974zm-.47 17.504a1.131 1.131 0 0 0-.196.028H44.24a1.174 1.174 0 0 0-.188-.028c-3.946-.257-7.036-3.051-7.036-6.358 0-3.521 3.424-6.385 7.66-6.385.026 0 .14.007.164.007a1.24 1.24 0 0 0 1.216-.987c.87-4.187 5.163-7.227 10.21-7.227 3.883-.12 7.52 1.88 9.48 5.213.21.396.617.649 1.067.662 4.88.136 8.703 3.455 8.703 7.545 0 3.955-3.686 7.263-8.392 7.53zM35.122 42.317c-1.51-4.825-6.55-8.232-12.388-8.232A13.268 13.268 0 0 0 11.406 40C5.517 40.475 1 44.742 1 49.973c0 5.183 4.57 9.516 10.452 9.976.115.034.234.05.353.05h23.224c.12 0 .24-.017.355-.053 5.116-.457 9.084-4.277 9.084-8.8 0-4.654-4.126-8.481-9.346-8.829zm-.174 15.187a1.13 1.13 0 0 0-.185.028H12.076a1.176 1.176 0 0 0-.2-.028c-4.706-.268-8.392-3.575-8.392-7.53 0-4.096 3.823-7.405 8.703-7.546.45-.013.857-.266 1.066-.662a10.615 10.615 0 0 1 9.48-5.213c5.048 0 9.341 3.04 10.207 7.229a1.24 1.24 0 0 0 1.216.987h.024l.166-.008c4.212 0 7.638 2.865 7.638 6.385 0 3.307-3.09 6.1-7.036 6.358zm35.6-25.887h-6.21c-.685 0-1.241.552-1.241 1.234v.599c.022 2.02.066 5.785-1.926 7.786a5.103 5.103 0 0 1-3.042 1.408v-2.389c0-.482-.283-.919-.723-1.12a1.248 1.248 0 0 0-1.326.183l-8.694 7.405a1.23 1.23 0 0 0 0 1.873L56.08 56c.368.313.886.384 1.326.183.44-.201.722-.638.723-1.12v-2.485c4.478-.161 13.661-1.862 13.661-19.727 0-.682-.556-1.234-1.242-1.234zm-13.661 18.51c-.686 0-1.242.552-1.242 1.235v1.018l-5.544-4.72 5.544-4.722v1.02c0 .68.556 1.233 1.242 1.233a8.197 8.197 0 0 0 6.056-2.221c2.484-2.498 2.658-6.417 2.649-8.885h3.702c-.157 7.724-1.959 16.042-12.407 16.042zM8.452 32.851h6.21c.685 0 1.241-.552 1.241-1.234v-.599c-.022-2.02-.066-5.785 1.926-7.787a5.103 5.103 0 0 1 3.042-1.407v2.39c0 .48.283.917.723 1.118.44.202.958.13 1.326-.183l8.694-7.404a1.23 1.23 0 0 0 0-1.873L22.92 8.468a1.248 1.248 0 0 0-1.326-.183c-.44.2-.722.638-.723 1.12v2.485C16.393 12.05 7.21 13.752 7.21 31.617c0 .682.556 1.234 1.242 1.234zm13.66-18.51c.687 0 1.243-.553 1.243-1.234v-1.02l5.544 4.722-5.544 4.72v-1.018c0-.682-.556-1.234-1.242-1.234a8.196 8.196 0 0 0-6.056 2.22c-2.484 2.498-2.658 6.418-2.649 8.886H9.706c.157-7.724 1.958-16.042 12.407-16.042z"/></svg></svg>